<mxfile host="app.diagrams.net" modified="2021-06-04T10:42:16.981Z" agent="5.0 (X11)" etag="nako5AFICzdCQ192hE3u" version="14.7.6" type="github">
  <diagram id="eY2XkMm_xlo1i0T8t892" name="Page-1">
    <mxGraphModel dx="3131" dy="1016" grid="1" gridSize="10" guides="1" tooltips="1" connect="1" arrows="1" fold="1" page="1" pageScale="1" pageWidth="1100" pageHeight="850" math="0" shadow="0">
      <root>
        <mxCell id="0" />
        <mxCell id="1" parent="0" />
        <mxCell id="Z1MW_R7BXnaQXeILdXze-1" value="Docker Container" style="shape=image;html=1;verticalAlign=top;verticalLabelPosition=bottom;labelBackgroundColor=#ffffff;imageAspect=0;aspect=fixed;image=https://cdn3.iconfinder.com/data/icons/social-media-2169/24/social_media_social_media_logo_docker-128.png" vertex="1" parent="1">
          <mxGeometry x="-737" y="1121.75" width="70" height="70" as="geometry" />
        </mxCell>
        <mxCell id="Z1MW_R7BXnaQXeILdXze-243" value="CI/CD builds&lt;br&gt;complete image" style="edgeStyle=orthogonalEdgeStyle;rounded=0;orthogonalLoop=1;jettySize=auto;html=1;exitX=0.5;exitY=0;exitDx=0;exitDy=0;entryX=0.5;entryY=1;entryDx=0;entryDy=0;startArrow=classicThin;startFill=1;endArrow=none;endFill=0;" edge="1" parent="1" source="Z1MW_R7BXnaQXeILdXze-3" target="Z1MW_R7BXnaQXeILdXze-162">
          <mxGeometry relative="1" as="geometry" />
        </mxCell>
        <mxCell id="Z1MW_R7BXnaQXeILdXze-3" value="Harbor&#xa;( or another private registry)" style="shape=image;verticalLabelPosition=bottom;labelBackgroundColor=#ffffff;verticalAlign=top;aspect=fixed;imageAspect=0;image=https://www.jpaul.me/wp-content/uploads/2020/09/harbor-icon-color.png;" vertex="1" parent="1">
          <mxGeometry x="-390" y="490" width="60" height="60" as="geometry" />
        </mxCell>
        <mxCell id="Z1MW_R7BXnaQXeILdXze-4" value="" style="shape=image;verticalLabelPosition=bottom;labelBackgroundColor=#ffffff;verticalAlign=top;aspect=fixed;imageAspect=0;image=https://about.gitlab.com/images/devops-tools/docker-hub-logo.png;" vertex="1" parent="1">
          <mxGeometry x="-814.02" y="330" width="108.04" height="86.09" as="geometry" />
        </mxCell>
        <mxCell id="Z1MW_R7BXnaQXeILdXze-12" value="" style="image;image=img/lib/atlassian/Bitbucket_Logo.svg;" vertex="1" parent="1">
          <mxGeometry x="-737" y="1261.75" width="80" height="60" as="geometry" />
        </mxCell>
        <mxCell id="Z1MW_R7BXnaQXeILdXze-13" value="Devops Team" style="group;labelPosition=center;verticalLabelPosition=top;align=center;verticalAlign=bottom;" vertex="1" connectable="0" parent="1">
          <mxGeometry x="-710" y="1160.54" width="130" height="65" as="geometry" />
        </mxCell>
        <mxCell id="Z1MW_R7BXnaQXeILdXze-10" value="" style="shape=image;html=1;verticalAlign=top;verticalLabelPosition=bottom;labelBackgroundColor=#ffffff;imageAspect=0;aspect=fixed;image=https://cdn1.iconfinder.com/data/icons/user-pictures/100/supportfemale-128.png" vertex="1" parent="Z1MW_R7BXnaQXeILdXze-13">
          <mxGeometry width="65" height="65" as="geometry" />
        </mxCell>
        <mxCell id="Z1MW_R7BXnaQXeILdXze-11" value="" style="shape=image;html=1;verticalAlign=top;verticalLabelPosition=bottom;labelBackgroundColor=#ffffff;imageAspect=0;aspect=fixed;image=https://cdn1.iconfinder.com/data/icons/user-pictures/101/malecostume-128.png" vertex="1" parent="Z1MW_R7BXnaQXeILdXze-13">
          <mxGeometry x="65" width="65" height="65" as="geometry" />
        </mxCell>
        <mxCell id="Z1MW_R7BXnaQXeILdXze-14" value="Nginx custom image needs an update" style="html=1;shadow=0;dashed=0;shape=mxgraph.atlassian.issue;issueType=story;issuePriority=blocker;issueStatus=inProgress;verticalAlign=top;align=left;whiteSpace=wrap;overflow=hidden;spacingTop=25;strokeColor=#A8ADB0;fillColor=#EEEEEE;fontSize=12;backgroundOutline=1;" vertex="1" parent="1">
          <mxGeometry x="-1075" y="10" width="235" height="50" as="geometry" />
        </mxCell>
        <mxCell id="Z1MW_R7BXnaQXeILdXze-15" value="ID" style="strokeColor=none;fillColor=none;part=1;resizable=0;align=left;autosize=1;points=[];deletable=0;connectable=0;" vertex="1" parent="Z1MW_R7BXnaQXeILdXze-14">
          <mxGeometry width="60" height="20" relative="1" as="geometry">
            <mxPoint x="20" as="offset" />
          </mxGeometry>
        </mxCell>
        <mxCell id="Z1MW_R7BXnaQXeILdXze-124" style="rounded=0;orthogonalLoop=1;jettySize=auto;html=1;exitX=0.5;exitY=1;exitDx=0;exitDy=0;entryX=0.75;entryY=0;entryDx=0;entryDy=0;entryPerimeter=0;strokeWidth=3;endArrow=none;endFill=0;" edge="1" parent="1" source="Z1MW_R7BXnaQXeILdXze-128" target="Z1MW_R7BXnaQXeILdXze-219">
          <mxGeometry relative="1" as="geometry" />
        </mxCell>
        <mxCell id="Z1MW_R7BXnaQXeILdXze-125" style="edgeStyle=none;rounded=0;orthogonalLoop=1;jettySize=auto;html=1;exitX=0.5;exitY=1;exitDx=0;exitDy=0;entryX=0.5;entryY=0;entryDx=0;entryDy=0;entryPerimeter=0;strokeWidth=3;endArrow=none;endFill=0;" edge="1" parent="1" source="Z1MW_R7BXnaQXeILdXze-128" target="Z1MW_R7BXnaQXeILdXze-217">
          <mxGeometry relative="1" as="geometry" />
        </mxCell>
        <mxCell id="Z1MW_R7BXnaQXeILdXze-126" style="edgeStyle=none;rounded=0;orthogonalLoop=1;jettySize=auto;html=1;exitX=0.5;exitY=1;exitDx=0;exitDy=0;entryX=0.5;entryY=0;entryDx=0;entryDy=0;entryPerimeter=0;strokeWidth=3;endArrow=none;endFill=0;" edge="1" parent="1" source="Z1MW_R7BXnaQXeILdXze-128" target="Z1MW_R7BXnaQXeILdXze-218">
          <mxGeometry relative="1" as="geometry" />
        </mxCell>
        <mxCell id="Z1MW_R7BXnaQXeILdXze-127" style="edgeStyle=none;rounded=0;orthogonalLoop=1;jettySize=auto;html=1;exitX=0.25;exitY=1;exitDx=0;exitDy=0;entryX=1;entryY=0.24;entryDx=0;entryDy=0;entryPerimeter=0;strokeWidth=3;" edge="1" parent="1" source="Z1MW_R7BXnaQXeILdXze-128" target="Z1MW_R7BXnaQXeILdXze-221">
          <mxGeometry relative="1" as="geometry" />
        </mxCell>
        <mxCell id="Z1MW_R7BXnaQXeILdXze-128" value="" style="rounded=0;whiteSpace=wrap;html=1;" vertex="1" parent="1">
          <mxGeometry x="580" y="831.75" width="460" height="120" as="geometry" />
        </mxCell>
        <mxCell id="Z1MW_R7BXnaQXeILdXze-129" value="habor.office.springlane.de&lt;br&gt;(registry)" style="html=1;fillColor=#5184F3;strokeColor=none;verticalAlign=top;labelPosition=center;verticalLabelPosition=bottom;align=center;spacingTop=-6;fontSize=11;fontStyle=0;shape=mxgraph.gcp2.hexIcon;prIcon=container_registry" vertex="1" parent="1">
          <mxGeometry x="270" y="657.75" width="100" height="80" as="geometry" />
        </mxCell>
        <mxCell id="Z1MW_R7BXnaQXeILdXze-130" value="" style="edgeStyle=orthogonalEdgeStyle;rounded=0;orthogonalLoop=1;jettySize=auto;html=1;startArrow=classic;startFill=1;endArrow=classic;endFill=1;strokeWidth=2;dashed=1;" edge="1" parent="1" source="Z1MW_R7BXnaQXeILdXze-132" target="Z1MW_R7BXnaQXeILdXze-133">
          <mxGeometry relative="1" as="geometry" />
        </mxCell>
        <mxCell id="Z1MW_R7BXnaQXeILdXze-131" value="Austausch" style="edgeLabel;html=1;align=center;verticalAlign=middle;resizable=0;points=[];labelBorderColor=#000000;" vertex="1" connectable="0" parent="Z1MW_R7BXnaQXeILdXze-130">
          <mxGeometry x="-0.2813" y="-3" relative="1" as="geometry">
            <mxPoint x="-22" y="3.0500000000000007" as="offset" />
          </mxGeometry>
        </mxCell>
        <mxCell id="Z1MW_R7BXnaQXeILdXze-132" value="BitBucket" style="image;image=img/lib/atlassian/Bitbucket_Logo.svg;" vertex="1" parent="1">
          <mxGeometry x="-654" y="687.75" width="90" height="72.25" as="geometry" />
        </mxCell>
        <mxCell id="Z1MW_R7BXnaQXeILdXze-133" value="Jira" style="image;image=img/lib/atlassian/Jira_Logo.svg;verticalAlign=bottom;spacingBottom=50;" vertex="1" parent="1">
          <mxGeometry x="-840" y="688" width="72" height="72" as="geometry" />
        </mxCell>
        <mxCell id="Z1MW_R7BXnaQXeILdXze-134" value="Operations" style="group;spacingBottom=0;verticalAlign=top;labelPosition=center;verticalLabelPosition=bottom;align=center;spacing=0;" vertex="1" connectable="0" parent="1">
          <mxGeometry x="-802.5" y="110" width="103" height="60" as="geometry" />
        </mxCell>
        <mxCell id="Z1MW_R7BXnaQXeILdXze-135" value="" style="shape=image;verticalLabelPosition=bottom;verticalAlign=top;imageAspect=0;aspect=fixed;image=data:image/svg+xml,PHN2ZyB4bWxucz0iaHR0cDovL3d3dy53My5vcmcvMjAwMC9zdmciIHZlcnNpb249IjEiIHZpZXdCb3g9IjAgMCA0OCA0OCIgZW5hYmxlLWJhY2tncm91bmQ9Im5ldyAwIDAgNDggNDgiPiYjeGE7ICAgIDxwb2x5Z29uIGZpbGw9IiNGRjk4MDAiIHBvaW50cz0iMjQsMzcgMTksMzEgMTksMjUgMjksMjUgMjksMzEiLz4mI3hhOyAgICA8ZyBmaWxsPSIjRkZBNzI2Ij4mI3hhOyAgICAgICAgPGNpcmNsZSBjeD0iMzMiIGN5PSIxOSIgcj0iMiIvPiYjeGE7ICAgICAgICA8Y2lyY2xlIGN4PSIxNSIgY3k9IjE5IiByPSIyIi8+JiN4YTsgICAgPC9nPiYjeGE7ICAgIDxwYXRoIGZpbGw9IiNGRkI3NEQiIGQ9Ik0zMywxM2MwLTcuNi0xOC01LTE4LDBjMCwxLjEsMCw1LjksMCw3YzAsNSw0LDksOSw5czktNCw5LTlDMzMsMTguOSwzMywxNC4xLDMzLDEzeiIvPiYjeGE7ICAgIDxwYXRoIGZpbGw9IiM0MjQyNDIiIGQ9Ik0yNCw0Yy02LjEsMC0xMCw0LjktMTAsMTFjMCwwLjgsMCwyLjMsMCwyLjNsMiwxLjd2LTVsMTItNGw0LDR2NWwyLTEuN2MwLDAsMC0xLjUsMC0yLjNjMC00LTEtOC02LTlsLTEtMiBIMjR6Ii8+JiN4YTsgICAgPGcgZmlsbD0iIzc4NDcxOSI+JiN4YTsgICAgICAgIDxjaXJjbGUgY3g9IjI4IiBjeT0iMTkiIHI9IjEiLz4mI3hhOyAgICAgICAgPGNpcmNsZSBjeD0iMjAiIGN5PSIxOSIgcj0iMSIvPiYjeGE7ICAgIDwvZz4mI3hhOyAgICA8cG9seWdvbiBmaWxsPSIjZmZmIiBwb2ludHM9IjI0LDQzIDE5LDMxIDI0LDMyIDI5LDMxIi8+JiN4YTsgICAgPHBvbHlnb24gZmlsbD0iI0QzMkYyRiIgcG9pbnRzPSIyMywzNSAyMi4zLDM5LjUgMjQsNDMuNSAyNS43LDM5LjUgMjUsMzUgMjYsMzQgMjQsMzIgMjIsMzQiLz4mI3hhOyAgICA8cGF0aCBmaWxsPSIjNTQ2RTdBIiBkPSJNMjksMzFMMjksMzFsLTUsMTJsLTUtMTJjMCwwLTExLDItMTEsMTNoMzJDNDAsMzMsMjksMzEsMjksMzF6Ii8+JiN4YTs8L3N2Zz4=;align=right;" vertex="1" parent="Z1MW_R7BXnaQXeILdXze-134">
          <mxGeometry width="60" height="60" as="geometry" />
        </mxCell>
        <mxCell id="Z1MW_R7BXnaQXeILdXze-136" value="" style="shape=image;verticalLabelPosition=bottom;verticalAlign=top;imageAspect=0;aspect=fixed;image=data:image/svg+xml,PHN2ZyB4bWxucz0iaHR0cDovL3d3dy53My5vcmcvMjAwMC9zdmciIHZlcnNpb249IjEiIHZpZXdCb3g9IjAgMCA0OCA0OCIgZW5hYmxlLWJhY2tncm91bmQ9Im5ldyAwIDAgNDggNDgiPiYjeGE7ICAgIDxyZWN0IHg9IjE2IiB5PSIxNSIgZmlsbD0iI0JGMzYwQyIgd2lkdGg9IjE2IiBoZWlnaHQ9IjE4Ii8+JiN4YTsgICAgPHBhdGggZmlsbD0iIzc4OTA5QyIgZD0iTTQwLDQ0SDhjMC0xMSwxMS0xMywxMS0xM2gxMEMyOSwzMSw0MCwzMyw0MCw0NHoiLz4mI3hhOyAgICA8cGF0aCBmaWxsPSIjRkY5ODAwIiBkPSJNMjQsMzdjLTIuMiwwLTUtNi01LTZ2LTZoMTB2NkMyOSwzMSwyNi4yLDM3LDI0LDM3eiIvPiYjeGE7ICAgIDxwYXRoIGZpbGw9IiNGRkI3NEQiIGQ9Ik0zMywxNGMwLTcuNi0xOC01LTE4LDBjMCwxLjEsMCw1LjksMCw3YzAsNSw0LDksOSw5czktNCw5LTlDMzMsMTkuOSwzMywxNS4xLDMzLDE0eiIvPiYjeGE7ICAgIDxwYXRoIGZpbGw9IiNGRjU3MjIiIGQ9Ik0yNCw0QzE3LjksNCw5LDcuNCw5LDI3LjNsNyw0LjdWMTlsMTItN2w0LDV2MTVsNy02YzAtNC0wLjctMjAtMTEtMjBsLTEtMkgyNHoiLz4mI3hhOyAgICA8cGF0aCBmaWxsPSIjRkZCNzREIiBkPSJNMjQsMzhjLTQuNCwwLTUtNy01LTdzMi41LDQsNSw0czUtNCw1LTRTMjguNCwzOCwyNCwzOHoiLz4mI3hhOyAgICA8Y2lyY2xlIGZpbGw9IiM3ODQ3MTkiIGN4PSIyOCIgY3k9IjIxIiByPSIxIi8+JiN4YTsgICAgPGNpcmNsZSBmaWxsPSIjNzg0NzE5IiBjeD0iMjAiIGN5PSIyMSIgcj0iMSIvPiYjeGE7PC9zdmc+" vertex="1" parent="Z1MW_R7BXnaQXeILdXze-134">
          <mxGeometry x="43" width="60" height="60" as="geometry" />
        </mxCell>
        <mxCell id="Z1MW_R7BXnaQXeILdXze-137" value="" style="edgeStyle=orthogonalEdgeStyle;rounded=0;orthogonalLoop=1;jettySize=auto;html=1;startArrow=none;startFill=0;endArrow=none;endFill=0;strokeWidth=3;" edge="1" parent="1" source="Z1MW_R7BXnaQXeILdXze-138" target="Z1MW_R7BXnaQXeILdXze-145">
          <mxGeometry relative="1" as="geometry" />
        </mxCell>
        <mxCell id="Z1MW_R7BXnaQXeILdXze-237" style="edgeStyle=orthogonalEdgeStyle;rounded=0;orthogonalLoop=1;jettySize=auto;html=1;exitX=0;exitY=0.5;exitDx=0;exitDy=0;entryX=1;entryY=0.75;entryDx=0;entryDy=0;startArrow=classicThin;startFill=1;endArrow=none;endFill=0;" edge="1" parent="1" source="Z1MW_R7BXnaQXeILdXze-138" target="Z1MW_R7BXnaQXeILdXze-14">
          <mxGeometry relative="1" as="geometry" />
        </mxCell>
        <mxCell id="Z1MW_R7BXnaQXeILdXze-138" value="" style="ellipse;align=center;labelBackgroundColor=none;strokeColor=#007FFF;fillColor=#007FFF;" vertex="1" parent="1">
          <mxGeometry x="-768" y="30" width="34" height="34" as="geometry" />
        </mxCell>
        <mxCell id="Z1MW_R7BXnaQXeILdXze-139" style="edgeStyle=orthogonalEdgeStyle;rounded=0;orthogonalLoop=1;jettySize=auto;html=1;startArrow=none;startFill=0;endArrow=classic;endFill=1;strokeWidth=3;" edge="1" parent="1">
          <mxGeometry relative="1" as="geometry">
            <mxPoint x="-778.5" y="587.75" as="targetPoint" />
            <mxPoint x="-778.5" y="667.75" as="sourcePoint" />
          </mxGeometry>
        </mxCell>
        <mxCell id="Z1MW_R7BXnaQXeILdXze-140" value="Operations" style="group;spacingBottom=0;verticalAlign=top;spacing=0;labelPosition=center;verticalLabelPosition=bottom;align=center;" vertex="1" connectable="0" parent="1">
          <mxGeometry x="-410" y="110" width="103" height="60" as="geometry" />
        </mxCell>
        <mxCell id="Z1MW_R7BXnaQXeILdXze-141" value="" style="shape=image;verticalLabelPosition=bottom;verticalAlign=top;imageAspect=0;aspect=fixed;image=data:image/svg+xml,PHN2ZyB4bWxucz0iaHR0cDovL3d3dy53My5vcmcvMjAwMC9zdmciIHZlcnNpb249IjEiIHZpZXdCb3g9IjAgMCA0OCA0OCIgZW5hYmxlLWJhY2tncm91bmQ9Im5ldyAwIDAgNDggNDgiPiYjeGE7ICAgIDxwb2x5Z29uIGZpbGw9IiNGRjk4MDAiIHBvaW50cz0iMjQsMzcgMTksMzEgMTksMjUgMjksMjUgMjksMzEiLz4mI3hhOyAgICA8ZyBmaWxsPSIjRkZBNzI2Ij4mI3hhOyAgICAgICAgPGNpcmNsZSBjeD0iMzMiIGN5PSIxOSIgcj0iMiIvPiYjeGE7ICAgICAgICA8Y2lyY2xlIGN4PSIxNSIgY3k9IjE5IiByPSIyIi8+JiN4YTsgICAgPC9nPiYjeGE7ICAgIDxwYXRoIGZpbGw9IiNGRkI3NEQiIGQ9Ik0zMywxM2MwLTcuNi0xOC01LTE4LDBjMCwxLjEsMCw1LjksMCw3YzAsNSw0LDksOSw5czktNCw5LTlDMzMsMTguOSwzMywxNC4xLDMzLDEzeiIvPiYjeGE7ICAgIDxwYXRoIGZpbGw9IiM0MjQyNDIiIGQ9Ik0yNCw0Yy02LjEsMC0xMCw0LjktMTAsMTFjMCwwLjgsMCwyLjMsMCwyLjNsMiwxLjd2LTVsMTItNGw0LDR2NWwyLTEuN2MwLDAsMC0xLjUsMC0yLjNjMC00LTEtOC02LTlsLTEtMiBIMjR6Ii8+JiN4YTsgICAgPGcgZmlsbD0iIzc4NDcxOSI+JiN4YTsgICAgICAgIDxjaXJjbGUgY3g9IjI4IiBjeT0iMTkiIHI9IjEiLz4mI3hhOyAgICAgICAgPGNpcmNsZSBjeD0iMjAiIGN5PSIxOSIgcj0iMSIvPiYjeGE7ICAgIDwvZz4mI3hhOyAgICA8cG9seWdvbiBmaWxsPSIjZmZmIiBwb2ludHM9IjI0LDQzIDE5LDMxIDI0LDMyIDI5LDMxIi8+JiN4YTsgICAgPHBvbHlnb24gZmlsbD0iI0QzMkYyRiIgcG9pbnRzPSIyMywzNSAyMi4zLDM5LjUgMjQsNDMuNSAyNS43LDM5LjUgMjUsMzUgMjYsMzQgMjQsMzIgMjIsMzQiLz4mI3hhOyAgICA8cGF0aCBmaWxsPSIjNTQ2RTdBIiBkPSJNMjksMzFMMjksMzFsLTUsMTJsLTUtMTJjMCwwLTExLDItMTEsMTNoMzJDNDAsMzMsMjksMzEsMjksMzF6Ii8+JiN4YTs8L3N2Zz4=;align=right;" vertex="1" parent="Z1MW_R7BXnaQXeILdXze-140">
          <mxGeometry width="60" height="60" as="geometry" />
        </mxCell>
        <mxCell id="Z1MW_R7BXnaQXeILdXze-142" value="" style="shape=image;verticalLabelPosition=bottom;verticalAlign=top;imageAspect=0;aspect=fixed;image=data:image/svg+xml,PHN2ZyB4bWxucz0iaHR0cDovL3d3dy53My5vcmcvMjAwMC9zdmciIHZlcnNpb249IjEiIHZpZXdCb3g9IjAgMCA0OCA0OCIgZW5hYmxlLWJhY2tncm91bmQ9Im5ldyAwIDAgNDggNDgiPiYjeGE7ICAgIDxyZWN0IHg9IjE2IiB5PSIxNSIgZmlsbD0iI0JGMzYwQyIgd2lkdGg9IjE2IiBoZWlnaHQ9IjE4Ii8+JiN4YTsgICAgPHBhdGggZmlsbD0iIzc4OTA5QyIgZD0iTTQwLDQ0SDhjMC0xMSwxMS0xMywxMS0xM2gxMEMyOSwzMSw0MCwzMyw0MCw0NHoiLz4mI3hhOyAgICA8cGF0aCBmaWxsPSIjRkY5ODAwIiBkPSJNMjQsMzdjLTIuMiwwLTUtNi01LTZ2LTZoMTB2NkMyOSwzMSwyNi4yLDM3LDI0LDM3eiIvPiYjeGE7ICAgIDxwYXRoIGZpbGw9IiNGRkI3NEQiIGQ9Ik0zMywxNGMwLTcuNi0xOC01LTE4LDBjMCwxLjEsMCw1LjksMCw3YzAsNSw0LDksOSw5czktNCw5LTlDMzMsMTkuOSwzMywxNS4xLDMzLDE0eiIvPiYjeGE7ICAgIDxwYXRoIGZpbGw9IiNGRjU3MjIiIGQ9Ik0yNCw0QzE3LjksNCw5LDcuNCw5LDI3LjNsNyw0LjdWMTlsMTItN2w0LDV2MTVsNy02YzAtNC0wLjctMjAtMTEtMjBsLTEtMkgyNHoiLz4mI3hhOyAgICA8cGF0aCBmaWxsPSIjRkZCNzREIiBkPSJNMjQsMzhjLTQuNCwwLTUtNy01LTdzMi41LDQsNSw0czUtNCw1LTRTMjguNCwzOCwyNCwzOHoiLz4mI3hhOyAgICA8Y2lyY2xlIGZpbGw9IiM3ODQ3MTkiIGN4PSIyOCIgY3k9IjIxIiByPSIxIi8+JiN4YTsgICAgPGNpcmNsZSBmaWxsPSIjNzg0NzE5IiBjeD0iMjAiIGN5PSIyMSIgcj0iMSIvPiYjeGE7PC9zdmc+;comic=0;" vertex="1" parent="Z1MW_R7BXnaQXeILdXze-140">
          <mxGeometry x="43" width="60" height="60" as="geometry" />
        </mxCell>
        <mxCell id="Z1MW_R7BXnaQXeILdXze-144" value="" style="edgeStyle=orthogonalEdgeStyle;rounded=0;orthogonalLoop=1;jettySize=auto;html=1;startArrow=none;startFill=0;endArrow=none;endFill=0;strokeWidth=3;" edge="1" parent="1" source="Z1MW_R7BXnaQXeILdXze-145" target="Z1MW_R7BXnaQXeILdXze-147">
          <mxGeometry relative="1" as="geometry" />
        </mxCell>
        <mxCell id="Z1MW_R7BXnaQXeILdXze-145" value="" style="ellipse;align=center;labelBackgroundColor=none;strokeColor=#007FFF;fillColor=#007FFF;" vertex="1" parent="1">
          <mxGeometry x="-576.5" y="30" width="34" height="34" as="geometry" />
        </mxCell>
        <mxCell id="Z1MW_R7BXnaQXeILdXze-146" value="" style="edgeStyle=orthogonalEdgeStyle;rounded=0;orthogonalLoop=1;jettySize=auto;html=1;startArrow=none;startFill=0;endArrow=none;endFill=0;strokeWidth=3;" edge="1" parent="1" source="Z1MW_R7BXnaQXeILdXze-147" target="Z1MW_R7BXnaQXeILdXze-152">
          <mxGeometry relative="1" as="geometry" />
        </mxCell>
        <mxCell id="Z1MW_R7BXnaQXeILdXze-147" value="" style="ellipse;align=center;labelBackgroundColor=none;strokeColor=#007FFF;fillColor=#007FFF;" vertex="1" parent="1">
          <mxGeometry x="-371" y="30" width="34" height="34" as="geometry" />
        </mxCell>
        <mxCell id="Z1MW_R7BXnaQXeILdXze-151" value="" style="edgeStyle=orthogonalEdgeStyle;rounded=0;orthogonalLoop=1;jettySize=auto;html=1;startArrow=none;startFill=0;endArrow=none;endFill=0;strokeWidth=3;" edge="1" parent="1" source="Z1MW_R7BXnaQXeILdXze-152" target="Z1MW_R7BXnaQXeILdXze-161">
          <mxGeometry relative="1" as="geometry" />
        </mxCell>
        <mxCell id="Z1MW_R7BXnaQXeILdXze-152" value="" style="ellipse;align=center;labelBackgroundColor=none;strokeColor=#007FFF;fillColor=#007FFF;" vertex="1" parent="1">
          <mxGeometry x="-181" y="30" width="34" height="34" as="geometry" />
        </mxCell>
        <mxCell id="Z1MW_R7BXnaQXeILdXze-156" style="edgeStyle=orthogonalEdgeStyle;rounded=0;orthogonalLoop=1;jettySize=auto;html=1;exitX=0.25;exitY=1;exitDx=0;exitDy=0;startArrow=classic;startFill=1;endArrow=classic;endFill=1;strokeWidth=2;dashed=1;" edge="1" parent="1" source="Z1MW_R7BXnaQXeILdXze-158">
          <mxGeometry relative="1" as="geometry">
            <mxPoint x="-767.5" y="747.75" as="targetPoint" />
            <Array as="points">
              <mxPoint x="-228.5" y="897.75" />
              <mxPoint x="-767.5" y="897.75" />
            </Array>
          </mxGeometry>
        </mxCell>
        <mxCell id="Z1MW_R7BXnaQXeILdXze-157" value="Austausch" style="edgeLabel;html=1;align=center;verticalAlign=middle;resizable=0;points=[];labelBorderColor=#000000;" vertex="1" connectable="0" parent="Z1MW_R7BXnaQXeILdXze-156">
          <mxGeometry x="0.2381" y="-1" relative="1" as="geometry">
            <mxPoint x="65.75" as="offset" />
          </mxGeometry>
        </mxCell>
        <mxCell id="Z1MW_R7BXnaQXeILdXze-158" value="BitBucket" style="image;image=img/lib/atlassian/Bitbucket_Logo.svg;" vertex="1" parent="1">
          <mxGeometry x="-251" y="647.75" width="90" height="72.25" as="geometry" />
        </mxCell>
        <mxCell id="Z1MW_R7BXnaQXeILdXze-160" value="" style="edgeStyle=orthogonalEdgeStyle;rounded=0;orthogonalLoop=1;jettySize=auto;html=1;startArrow=none;startFill=0;endArrow=none;endFill=0;strokeWidth=3;" edge="1" parent="1" source="Z1MW_R7BXnaQXeILdXze-161" target="Z1MW_R7BXnaQXeILdXze-169">
          <mxGeometry relative="1" as="geometry" />
        </mxCell>
        <mxCell id="Z1MW_R7BXnaQXeILdXze-161" value="" style="ellipse;align=center;labelBackgroundColor=none;strokeColor=#007FFF;fillColor=#007FFF;" vertex="1" parent="1">
          <mxGeometry x="-1" y="30" width="34" height="34" as="geometry" />
        </mxCell>
        <mxCell id="Z1MW_R7BXnaQXeILdXze-242" value="push tested code&amp;nbsp; &lt;br&gt;to repository" style="edgeStyle=orthogonalEdgeStyle;rounded=0;orthogonalLoop=1;jettySize=auto;html=1;exitX=0.5;exitY=0;exitDx=0;exitDy=0;startArrow=classicThin;startFill=1;endArrow=none;endFill=0;" edge="1" parent="1" source="Z1MW_R7BXnaQXeILdXze-162">
          <mxGeometry relative="1" as="geometry">
            <mxPoint x="-358" y="190" as="targetPoint" />
          </mxGeometry>
        </mxCell>
        <mxCell id="Z1MW_R7BXnaQXeILdXze-162" value="Git Repository" style="image;image=img/lib/atlassian/Bitbucket_Logo.svg;labelPosition=left;verticalLabelPosition=middle;align=right;verticalAlign=middle;" vertex="1" parent="1">
          <mxGeometry x="-403.5" y="310" width="90" height="72.25" as="geometry" />
        </mxCell>
        <mxCell id="Z1MW_R7BXnaQXeILdXze-163" style="edgeStyle=orthogonalEdgeStyle;rounded=0;orthogonalLoop=1;jettySize=auto;html=1;exitX=0.5;exitY=0;exitDx=0;exitDy=0;startArrow=classic;startFill=1;endArrow=none;endFill=0;strokeWidth=3;" edge="1" parent="1">
          <mxGeometry relative="1" as="geometry">
            <mxPoint x="-22.000000000000455" y="582.75" as="targetPoint" />
            <mxPoint x="-22.000000000000455" y="642.75" as="sourcePoint" />
            <Array as="points">
              <mxPoint x="-21.5" y="602.75" />
              <mxPoint x="-21.5" y="602.75" />
            </Array>
          </mxGeometry>
        </mxCell>
        <mxCell id="Z1MW_R7BXnaQXeILdXze-164" value="" style="group;spacingBottom=-10;" vertex="1" connectable="0" parent="1">
          <mxGeometry x="30" y="657.75" width="102.08" height="50" as="geometry" />
        </mxCell>
        <mxCell id="Z1MW_R7BXnaQXeILdXze-165" value="" style="shape=image;verticalLabelPosition=bottom;verticalAlign=top;imageAspect=0;aspect=fixed;image=data:image/svg+xml,PHN2ZyB4bWxucz0iaHR0cDovL3d3dy53My5vcmcvMjAwMC9zdmciIHZlcnNpb249IjEiIHZpZXdCb3g9IjAgMCA0OCA0OCIgZW5hYmxlLWJhY2tncm91bmQ9Im5ldyAwIDAgNDggNDgiPiYjeGE7ICAgIDxyZWN0IHg9IjEzIiB5PSIzMCIgZmlsbD0iI0JGMzYwQyIgd2lkdGg9IjIyIiBoZWlnaHQ9IjEyIi8+JiN4YTsgICAgPGcgZmlsbD0iI0ZGQTcyNiI+JiN4YTsgICAgICAgIDxjaXJjbGUgY3g9IjEwIiBjeT0iMjYiIHI9IjQiLz4mI3hhOyAgICAgICAgPGNpcmNsZSBjeD0iMzgiIGN5PSIyNiIgcj0iNCIvPiYjeGE7ICAgIDwvZz4mI3hhOyAgICA8cGF0aCBmaWxsPSIjRkZCNzREIiBkPSJNMzksMTljMC0xMi43LTMwLTguMy0zMCwwYzAsMS44LDAsOC4yLDAsMTBjMCw4LjMsNi43LDE1LDE1LDE1czE1LTYuNywxNS0xNUMzOSwyNy4yLDM5LDIwLjgsMzksMTl6Ii8+JiN4YTsgICAgPGcgZmlsbD0iIzc4NDcxOSI+JiN4YTsgICAgICAgIDxjaXJjbGUgY3g9IjMwIiBjeT0iMjYiIHI9IjIiLz4mI3hhOyAgICAgICAgPGNpcmNsZSBjeD0iMTgiIGN5PSIyNiIgcj0iMiIvPiYjeGE7ICAgIDwvZz4mI3hhOyAgICA8cGF0aCBmaWxsPSIjRkY1NzIyIiBkPSJNMjQsMkMxNS41LDIsMyw3LjgsMywzNS42TDEzLDQyVjI0bDE2LjgtOS44TDM1LDIxdjIxbDEwLTguMmMwLTUuNi0wLjktMjktMTUuNC0yOUwyOC4yLDJIMjR6Ii8+JiN4YTsgICAgPHBhdGggZmlsbD0iIzc1NzU3NSIgZD0iTTQ1LDI0Yy0wLjYsMC0xLDAuNC0xLDF2LTdjMC04LjgtNy4yLTE2LTE2LTE2aC05Yy0wLjYsMC0xLDAuNC0xLDFzMC40LDEsMSwxaDljNy43LDAsMTQsNi4zLDE0LDE0djEwIGMwLDAuNiwwLjQsMSwxLDFzMS0wLjQsMS0xdjJjMCwzLjktMy4xLDctNyw3SDI0Yy0wLjYsMC0xLDAuNC0xLDFzMC40LDEsMSwxaDEzYzUsMCw5LTQsOS05di01QzQ2LDI0LjQsNDUuNiwyNCw0NSwyNHoiLz4mI3hhOyAgICA8ZyBmaWxsPSIjMzc0NzRGIj4mI3hhOyAgICAgICAgPHBhdGggZD0iTTQ1LDIyaC0xYy0xLjEsMC0yLDAuOS0yLDJ2NGMwLDEuMSwwLjksMiwyLDJoMWMxLjEsMCwyLTAuOSwyLTJ2LTRDNDcsMjIuOSw0Ni4xLDIyLDQ1LDIyeiIvPiYjeGE7ICAgICAgICA8Y2lyY2xlIGN4PSIyNCIgY3k9IjM4IiByPSIyIi8+JiN4YTsgICAgPC9nPiYjeGE7PC9zdmc+;comic=0;strokeColor=#000000;fillColor=#FFFFFF;gradientColor=none;" vertex="1" parent="Z1MW_R7BXnaQXeILdXze-164">
          <mxGeometry width="49.99836734693878" height="49.99836734693878" as="geometry" />
        </mxCell>
        <mxCell id="Z1MW_R7BXnaQXeILdXze-166" value="" style="shape=image;verticalLabelPosition=bottom;verticalAlign=top;imageAspect=0;aspect=fixed;image=data:image/svg+xml,PHN2ZyB4bWxucz0iaHR0cDovL3d3dy53My5vcmcvMjAwMC9zdmciIHZlcnNpb249IjEiIHZpZXdCb3g9IjAgMCA0OCA0OCIgZW5hYmxlLWJhY2tncm91bmQ9Im5ldyAwIDAgNDggNDgiPiYjeGE7ICAgIDxwYXRoIGZpbGw9IiNGRkI3NEQiIGQ9Ik0yOSw0M3YtNC42bDIuNiwwLjVjMi45LDAuNiw1LjYtMS41LDUuOC00LjRMMzgsMjhsMi45LTEuMmMxLTAuNCwxLjQtMS42LDAuOC0yLjZMMzgsMTggYy0wLjYtNy42LTQuOS0xNS0xNi0xNUMxMC42LDMsNSwxMS40LDUsMjBjMCwzLjcsMS4zLDYuOSwzLjMsOS42YzEuOCwyLjUsMi43LDUuNSwyLjcsOC41bDAsNC44SDI5eiIvPiYjeGE7ICAgIDxwb2x5Z29uIGZpbGw9IiNGRjk4MDAiIHBvaW50cz0iMjksNDMgMjksMzguNCAyMiwzNyAyMiw0MyIvPiYjeGE7ICAgIDxjaXJjbGUgZmlsbD0iIzc4NDcxOSIgY3g9IjMzLjUiIGN5PSIyMS41IiByPSIxLjUiLz4mI3hhOyAgICA8cGF0aCBmaWxsPSIjRkY1NzIyIiBkPSJNMjEuNCwzQzEyLjMsMyw1LDEwLjMsNSwxOS40YzAsMTEuMSw2LDExLjQsNiwxOC42bDIuNi0wLjljMi4xLTAuNywzLjktMi4zLDQuNy00LjRsMi44LTYuOEwyNywyM3YtNiBjMCwwLDctMy44LDctMTAuM0MzMSw0LjIsMjUuNywzLDIxLjQsM3oiLz4mI3hhOyAgICA8ZyBmaWxsPSIjNTQ2RTdBIj4mI3hhOyAgICAgICAgPHBhdGggZD0iTTIxLDIuMWMtMC42LDAtMSwwLjQtMSwxdjEzLjljMCwwLjYsMC40LDEsMSwxczEtMC40LDEtMVYzLjFDMjIsMi41LDIxLjYsMi4xLDIxLDIuMXoiLz4mI3hhOyAgICAgICAgPHBhdGggZD0iTTM2LjksMzEuOWMtNy45LDAtMTAuMy00LjktMTAuNC01LjFjLTAuMi0wLjUtMC44LTAuNy0xLjMtMC41Yy0wLjUsMC4yLTAuNywwLjgtMC41LDEuMyBjMC4xLDAuMywzLDYuMywxMi4yLDYuM2MwLjYsMCwxLTAuNCwxLTFTMzcuNCwzMS45LDM2LjksMzEuOXoiLz4mI3hhOyAgICA8L2c+JiN4YTsgICAgPGNpcmNsZSBmaWxsPSIjMzc0NzRGIiBjeD0iMzciIGN5PSIzMyIgcj0iMiIvPiYjeGE7ICAgIDxjaXJjbGUgZmlsbD0iIzM3NDc0RiIgY3g9IjIxIiBjeT0iMjMiIHI9IjciLz4mI3hhOyAgICA8Y2lyY2xlIGZpbGw9IiM1NDZFN0EiIGN4PSIyMSIgY3k9IjIzIiByPSI0Ii8+JiN4YTs8L3N2Zz4=;comic=0;strokeColor=#000000;fillColor=#FFFFFF;gradientColor=none;" vertex="1" parent="Z1MW_R7BXnaQXeILdXze-164">
          <mxGeometry x="52.08163265306123" width="49.99836734693878" height="49.99836734693878" as="geometry" />
        </mxCell>
        <mxCell id="Z1MW_R7BXnaQXeILdXze-167" value="Testing durch PM and another DEV" style="text;html=1;strokeColor=none;fillColor=none;align=center;verticalAlign=middle;whiteSpace=wrap;rounded=0;comic=0;" vertex="1" parent="1">
          <mxGeometry x="18.91999999999996" y="711.75" width="124.25" height="20" as="geometry" />
        </mxCell>
        <mxCell id="Z1MW_R7BXnaQXeILdXze-168" value="" style="edgeStyle=orthogonalEdgeStyle;rounded=0;orthogonalLoop=1;jettySize=auto;html=1;startArrow=none;startFill=0;endArrow=none;endFill=0;strokeWidth=3;" edge="1" parent="1" source="Z1MW_R7BXnaQXeILdXze-169" target="Z1MW_R7BXnaQXeILdXze-175">
          <mxGeometry relative="1" as="geometry" />
        </mxCell>
        <mxCell id="Z1MW_R7BXnaQXeILdXze-169" value="" style="ellipse;align=center;labelBackgroundColor=none;strokeColor=#007FFF;fillColor=#007FFF;" vertex="1" parent="1">
          <mxGeometry x="215.5" y="30" width="34" height="34" as="geometry" />
        </mxCell>
        <mxCell id="Z1MW_R7BXnaQXeILdXze-170" value="" style="edgeStyle=orthogonalEdgeStyle;rounded=0;orthogonalLoop=1;jettySize=auto;html=1;startArrow=none;startFill=0;endArrow=classic;endFill=1;strokeWidth=3;" edge="1" parent="1">
          <mxGeometry relative="1" as="geometry">
            <mxPoint x="75.19000000000005" y="650" as="sourcePoint" />
            <mxPoint x="75.19000000000005" y="460" as="targetPoint" />
            <Array as="points">
              <mxPoint x="75.19000000000005" y="530" />
            </Array>
          </mxGeometry>
        </mxCell>
        <mxCell id="Z1MW_R7BXnaQXeILdXze-171" value="approval" style="edgeLabel;html=1;align=center;verticalAlign=middle;resizable=0;points=[];" vertex="1" connectable="0" parent="Z1MW_R7BXnaQXeILdXze-170">
          <mxGeometry x="0.3894" relative="1" as="geometry">
            <mxPoint y="38.13" as="offset" />
          </mxGeometry>
        </mxCell>
        <mxCell id="Z1MW_R7BXnaQXeILdXze-172" value="Merge in Master" style="shape=image;html=1;verticalAlign=top;verticalLabelPosition=bottom;labelBackgroundColor=#ffffff;imageAspect=0;aspect=fixed;image=https://cdn2.iconfinder.com/data/icons/security-243/24/ic_git-128.png;comic=0;strokeColor=#000000;fillColor=#FFFFFF;gradientColor=none;spacingBottom=0;spacingTop=-4;" vertex="1" parent="1">
          <mxGeometry x="150" y="468.88" width="90" height="90" as="geometry" />
        </mxCell>
        <mxCell id="Z1MW_R7BXnaQXeILdXze-173" value="Stage/Prod Container&amp;nbsp;&lt;br&gt;wird gebaut&lt;br&gt;und in Registry gepushed" style="shape=image;html=1;verticalAlign=top;verticalLabelPosition=bottom;labelBackgroundColor=#ffffff;imageAspect=0;aspect=fixed;image=https://cdn3.iconfinder.com/data/icons/social-media-2169/24/social_media_social_media_logo_docker-128.png" vertex="1" parent="1">
          <mxGeometry x="285" y="468.88" width="70" height="70" as="geometry" />
        </mxCell>
        <mxCell id="Z1MW_R7BXnaQXeILdXze-174" value="" style="edgeStyle=orthogonalEdgeStyle;rounded=0;orthogonalLoop=1;jettySize=auto;html=1;strokeWidth=3;endArrow=none;endFill=0;" edge="1" parent="1" source="Z1MW_R7BXnaQXeILdXze-175" target="Z1MW_R7BXnaQXeILdXze-186">
          <mxGeometry relative="1" as="geometry" />
        </mxCell>
        <mxCell id="Z1MW_R7BXnaQXeILdXze-175" value="" style="ellipse;align=center;labelBackgroundColor=none;strokeColor=#007FFF;fillColor=#007FFF;" vertex="1" parent="1">
          <mxGeometry x="340.5" y="30" width="34" height="34" as="geometry" />
        </mxCell>
        <mxCell id="Z1MW_R7BXnaQXeILdXze-176" style="edgeStyle=orthogonalEdgeStyle;rounded=0;orthogonalLoop=1;jettySize=auto;html=1;exitX=0.5;exitY=0;exitDx=0;exitDy=0;startArrow=classic;startFill=1;endArrow=none;endFill=0;strokeWidth=3;" edge="1" parent="1">
          <mxGeometry relative="1" as="geometry">
            <mxPoint x="319.5" y="596.6300000000001" as="targetPoint" />
            <mxPoint x="319.5" y="656.6300000000001" as="sourcePoint" />
            <Array as="points">
              <mxPoint x="320" y="616.63" />
              <mxPoint x="320" y="616.63" />
            </Array>
          </mxGeometry>
        </mxCell>
        <mxCell id="Z1MW_R7BXnaQXeILdXze-241" value="&lt;br&gt;Operations update the &lt;br&gt;necessary changes &lt;br&gt;and locally test image &lt;div&gt;&lt;br&gt;&lt;/div&gt;" style="edgeStyle=orthogonalEdgeStyle;rounded=0;orthogonalLoop=1;jettySize=auto;html=1;exitX=0.5;exitY=0;exitDx=0;exitDy=0;startArrow=classicThin;startFill=1;endArrow=none;endFill=0;" edge="1" parent="1" source="Z1MW_R7BXnaQXeILdXze-178">
          <mxGeometry relative="1" as="geometry">
            <mxPoint x="-560" y="200" as="targetPoint" />
          </mxGeometry>
        </mxCell>
        <mxCell id="Z1MW_R7BXnaQXeILdXze-178" value="&lt;b&gt;base image&lt;/b&gt;" style="shape=image;html=1;verticalAlign=top;verticalLabelPosition=bottom;labelBackgroundColor=#ffffff;imageAspect=0;aspect=fixed;image=https://cdn3.iconfinder.com/data/icons/social-media-2169/24/social_media_social_media_logo_docker-128.png" vertex="1" parent="1">
          <mxGeometry x="-594.5" y="320" width="70" height="70" as="geometry" />
        </mxCell>
        <mxCell id="Z1MW_R7BXnaQXeILdXze-180" value="habor.office.springlane.de&lt;br&gt;(registry)&lt;br&gt;" style="html=1;fillColor=#5184F3;strokeColor=none;verticalAlign=top;labelPosition=center;verticalLabelPosition=bottom;align=center;spacingTop=-6;fontSize=11;fontStyle=0;shape=mxgraph.gcp2.hexIcon;prIcon=container_registry" vertex="1" parent="1">
          <mxGeometry x="-434.5" y="777.75" width="100" height="80" as="geometry" />
        </mxCell>
        <mxCell id="Z1MW_R7BXnaQXeILdXze-181" style="rounded=0;orthogonalLoop=1;jettySize=auto;html=1;startArrow=none;startFill=0;endArrow=classic;endFill=1;strokeWidth=3;" edge="1" parent="1">
          <mxGeometry relative="1" as="geometry">
            <mxPoint x="-438.5" y="697.75" as="targetPoint" />
            <mxPoint x="-388.5" y="777.75" as="sourcePoint" />
          </mxGeometry>
        </mxCell>
        <mxCell id="Z1MW_R7BXnaQXeILdXze-182" style="rounded=0;orthogonalLoop=1;jettySize=auto;html=1;exitX=0.5;exitY=0;exitDx=0;exitDy=0;startArrow=none;startFill=0;endArrow=classic;endFill=1;strokeWidth=3;" edge="1" parent="1">
          <mxGeometry relative="1" as="geometry">
            <mxPoint x="-384.5" y="707.75" as="targetPoint" />
            <mxPoint x="-384.9200000000001" y="777.75" as="sourcePoint" />
          </mxGeometry>
        </mxCell>
        <mxCell id="Z1MW_R7BXnaQXeILdXze-184" value="" style="shape=image;html=1;verticalAlign=top;verticalLabelPosition=bottom;labelBackgroundColor=#ffffff;imageAspect=0;aspect=fixed;image=https://cdn3.iconfinder.com/data/icons/social-media-2169/24/social_media_social_media_logo_docker-128.png" vertex="1" parent="1">
          <mxGeometry x="-48.5" y="650" width="70" height="70" as="geometry" />
        </mxCell>
        <mxCell id="Z1MW_R7BXnaQXeILdXze-185" value="" style="edgeStyle=orthogonalEdgeStyle;rounded=0;orthogonalLoop=1;jettySize=auto;html=1;strokeWidth=3;endArrow=none;endFill=0;" edge="1" parent="1" source="Z1MW_R7BXnaQXeILdXze-186" target="Z1MW_R7BXnaQXeILdXze-197">
          <mxGeometry relative="1" as="geometry" />
        </mxCell>
        <mxCell id="Z1MW_R7BXnaQXeILdXze-186" value="" style="ellipse;align=center;labelBackgroundColor=none;strokeColor=#007FFF;fillColor=#007FFF;" vertex="1" parent="1">
          <mxGeometry x="506" y="30" width="34" height="34" as="geometry" />
        </mxCell>
        <mxCell id="Z1MW_R7BXnaQXeILdXze-187" style="edgeStyle=orthogonalEdgeStyle;rounded=0;orthogonalLoop=1;jettySize=auto;html=1;exitX=0.75;exitY=1;exitDx=0;exitDy=0;strokeWidth=3;" edge="1" parent="1" source="Z1MW_R7BXnaQXeILdXze-188">
          <mxGeometry relative="1" as="geometry">
            <mxPoint x="503.1999999999998" y="661.75" as="targetPoint" />
          </mxGeometry>
        </mxCell>
        <mxCell id="Z1MW_R7BXnaQXeILdXze-188" value="Run Tests on Container&lt;br&gt;and notify" style="shape=image;html=1;verticalAlign=top;verticalLabelPosition=bottom;labelBackgroundColor=#ffffff;imageAspect=0;aspect=fixed;image=https://cdn3.iconfinder.com/data/icons/tools-hardwares/36/tool-box-128.png" vertex="1" parent="1">
          <mxGeometry x="450.5" y="472.75" width="70" height="70" as="geometry" />
        </mxCell>
        <mxCell id="Z1MW_R7BXnaQXeILdXze-189" style="rounded=0;orthogonalLoop=1;jettySize=auto;html=1;startArrow=none;startFill=0;endArrow=classic;endFill=1;strokeWidth=3;" edge="1" parent="1">
          <mxGeometry relative="1" as="geometry">
            <mxPoint x="450.5" y="581.75" as="targetPoint" />
            <mxPoint x="360.49999999999955" y="671.75" as="sourcePoint" />
          </mxGeometry>
        </mxCell>
        <mxCell id="Z1MW_R7BXnaQXeILdXze-190" value="" style="group;spacingBottom=-10;" vertex="1" connectable="0" parent="1">
          <mxGeometry x="438.5" y="671.75" width="102.08" height="50" as="geometry" />
        </mxCell>
        <mxCell id="Z1MW_R7BXnaQXeILdXze-191" value="" style="shape=image;verticalLabelPosition=bottom;verticalAlign=top;imageAspect=0;aspect=fixed;image=data:image/svg+xml,PHN2ZyB4bWxucz0iaHR0cDovL3d3dy53My5vcmcvMjAwMC9zdmciIHZlcnNpb249IjEiIHZpZXdCb3g9IjAgMCA0OCA0OCIgZW5hYmxlLWJhY2tncm91bmQ9Im5ldyAwIDAgNDggNDgiPiYjeGE7ICAgIDxyZWN0IHg9IjEzIiB5PSIzMCIgZmlsbD0iI0JGMzYwQyIgd2lkdGg9IjIyIiBoZWlnaHQ9IjEyIi8+JiN4YTsgICAgPGcgZmlsbD0iI0ZGQTcyNiI+JiN4YTsgICAgICAgIDxjaXJjbGUgY3g9IjEwIiBjeT0iMjYiIHI9IjQiLz4mI3hhOyAgICAgICAgPGNpcmNsZSBjeD0iMzgiIGN5PSIyNiIgcj0iNCIvPiYjeGE7ICAgIDwvZz4mI3hhOyAgICA8cGF0aCBmaWxsPSIjRkZCNzREIiBkPSJNMzksMTljMC0xMi43LTMwLTguMy0zMCwwYzAsMS44LDAsOC4yLDAsMTBjMCw4LjMsNi43LDE1LDE1LDE1czE1LTYuNywxNS0xNUMzOSwyNy4yLDM5LDIwLjgsMzksMTl6Ii8+JiN4YTsgICAgPGcgZmlsbD0iIzc4NDcxOSI+JiN4YTsgICAgICAgIDxjaXJjbGUgY3g9IjMwIiBjeT0iMjYiIHI9IjIiLz4mI3hhOyAgICAgICAgPGNpcmNsZSBjeD0iMTgiIGN5PSIyNiIgcj0iMiIvPiYjeGE7ICAgIDwvZz4mI3hhOyAgICA8cGF0aCBmaWxsPSIjRkY1NzIyIiBkPSJNMjQsMkMxNS41LDIsMyw3LjgsMywzNS42TDEzLDQyVjI0bDE2LjgtOS44TDM1LDIxdjIxbDEwLTguMmMwLTUuNi0wLjktMjktMTUuNC0yOUwyOC4yLDJIMjR6Ii8+JiN4YTsgICAgPHBhdGggZmlsbD0iIzc1NzU3NSIgZD0iTTQ1LDI0Yy0wLjYsMC0xLDAuNC0xLDF2LTdjMC04LjgtNy4yLTE2LTE2LTE2aC05Yy0wLjYsMC0xLDAuNC0xLDFzMC40LDEsMSwxaDljNy43LDAsMTQsNi4zLDE0LDE0djEwIGMwLDAuNiwwLjQsMSwxLDFzMS0wLjQsMS0xdjJjMCwzLjktMy4xLDctNyw3SDI0Yy0wLjYsMC0xLDAuNC0xLDFzMC40LDEsMSwxaDEzYzUsMCw5LTQsOS05di01QzQ2LDI0LjQsNDUuNiwyNCw0NSwyNHoiLz4mI3hhOyAgICA8ZyBmaWxsPSIjMzc0NzRGIj4mI3hhOyAgICAgICAgPHBhdGggZD0iTTQ1LDIyaC0xYy0xLjEsMC0yLDAuOS0yLDJ2NGMwLDEuMSwwLjksMiwyLDJoMWMxLjEsMCwyLTAuOSwyLTJ2LTRDNDcsMjIuOSw0Ni4xLDIyLDQ1LDIyeiIvPiYjeGE7ICAgICAgICA8Y2lyY2xlIGN4PSIyNCIgY3k9IjM4IiByPSIyIi8+JiN4YTsgICAgPC9nPiYjeGE7PC9zdmc+;comic=0;strokeColor=#000000;fillColor=#FFFFFF;gradientColor=none;" vertex="1" parent="Z1MW_R7BXnaQXeILdXze-190">
          <mxGeometry width="49.99836734693878" height="49.99836734693878" as="geometry" />
        </mxCell>
        <mxCell id="Z1MW_R7BXnaQXeILdXze-192" value="" style="shape=image;verticalLabelPosition=bottom;verticalAlign=top;imageAspect=0;aspect=fixed;image=data:image/svg+xml,PHN2ZyB4bWxucz0iaHR0cDovL3d3dy53My5vcmcvMjAwMC9zdmciIHZlcnNpb249IjEiIHZpZXdCb3g9IjAgMCA0OCA0OCIgZW5hYmxlLWJhY2tncm91bmQ9Im5ldyAwIDAgNDggNDgiPiYjeGE7ICAgIDxwYXRoIGZpbGw9IiNGRkI3NEQiIGQ9Ik0yOSw0M3YtNC42bDIuNiwwLjVjMi45LDAuNiw1LjYtMS41LDUuOC00LjRMMzgsMjhsMi45LTEuMmMxLTAuNCwxLjQtMS42LDAuOC0yLjZMMzgsMTggYy0wLjYtNy42LTQuOS0xNS0xNi0xNUMxMC42LDMsNSwxMS40LDUsMjBjMCwzLjcsMS4zLDYuOSwzLjMsOS42YzEuOCwyLjUsMi43LDUuNSwyLjcsOC41bDAsNC44SDI5eiIvPiYjeGE7ICAgIDxwb2x5Z29uIGZpbGw9IiNGRjk4MDAiIHBvaW50cz0iMjksNDMgMjksMzguNCAyMiwzNyAyMiw0MyIvPiYjeGE7ICAgIDxjaXJjbGUgZmlsbD0iIzc4NDcxOSIgY3g9IjMzLjUiIGN5PSIyMS41IiByPSIxLjUiLz4mI3hhOyAgICA8cGF0aCBmaWxsPSIjRkY1NzIyIiBkPSJNMjEuNCwzQzEyLjMsMyw1LDEwLjMsNSwxOS40YzAsMTEuMSw2LDExLjQsNiwxOC42bDIuNi0wLjljMi4xLTAuNywzLjktMi4zLDQuNy00LjRsMi44LTYuOEwyNywyM3YtNiBjMCwwLDctMy44LDctMTAuM0MzMSw0LjIsMjUuNywzLDIxLjQsM3oiLz4mI3hhOyAgICA8ZyBmaWxsPSIjNTQ2RTdBIj4mI3hhOyAgICAgICAgPHBhdGggZD0iTTIxLDIuMWMtMC42LDAtMSwwLjQtMSwxdjEzLjljMCwwLjYsMC40LDEsMSwxczEtMC40LDEtMVYzLjFDMjIsMi41LDIxLjYsMi4xLDIxLDIuMXoiLz4mI3hhOyAgICAgICAgPHBhdGggZD0iTTM2LjksMzEuOWMtNy45LDAtMTAuMy00LjktMTAuNC01LjFjLTAuMi0wLjUtMC44LTAuNy0xLjMtMC41Yy0wLjUsMC4yLTAuNywwLjgtMC41LDEuMyBjMC4xLDAuMywzLDYuMywxMi4yLDYuM2MwLjYsMCwxLTAuNCwxLTFTMzcuNCwzMS45LDM2LjksMzEuOXoiLz4mI3hhOyAgICA8L2c+JiN4YTsgICAgPGNpcmNsZSBmaWxsPSIjMzc0NzRGIiBjeD0iMzciIGN5PSIzMyIgcj0iMiIvPiYjeGE7ICAgIDxjaXJjbGUgZmlsbD0iIzM3NDc0RiIgY3g9IjIxIiBjeT0iMjMiIHI9IjciLz4mI3hhOyAgICA8Y2lyY2xlIGZpbGw9IiM1NDZFN0EiIGN4PSIyMSIgY3k9IjIzIiByPSI0Ii8+JiN4YTs8L3N2Zz4=;comic=0;strokeColor=#000000;fillColor=#FFFFFF;gradientColor=none;" vertex="1" parent="Z1MW_R7BXnaQXeILdXze-190">
          <mxGeometry x="52.08163265306123" width="49.99836734693878" height="49.99836734693878" as="geometry" />
        </mxCell>
        <mxCell id="Z1MW_R7BXnaQXeILdXze-193" value="" style="group;spacingBottom=-33;verticalAlign=bottom;" vertex="1" connectable="0" parent="1">
          <mxGeometry x="438.5" y="731.75" width="103" height="60" as="geometry" />
        </mxCell>
        <mxCell id="Z1MW_R7BXnaQXeILdXze-194" value="" style="shape=image;verticalLabelPosition=bottom;verticalAlign=top;imageAspect=0;aspect=fixed;image=data:image/svg+xml,PHN2ZyB4bWxucz0iaHR0cDovL3d3dy53My5vcmcvMjAwMC9zdmciIHZlcnNpb249IjEiIHZpZXdCb3g9IjAgMCA0OCA0OCIgZW5hYmxlLWJhY2tncm91bmQ9Im5ldyAwIDAgNDggNDgiPiYjeGE7ICAgIDxwb2x5Z29uIGZpbGw9IiNGRjk4MDAiIHBvaW50cz0iMjQsMzcgMTksMzEgMTksMjUgMjksMjUgMjksMzEiLz4mI3hhOyAgICA8ZyBmaWxsPSIjRkZBNzI2Ij4mI3hhOyAgICAgICAgPGNpcmNsZSBjeD0iMzMiIGN5PSIxOSIgcj0iMiIvPiYjeGE7ICAgICAgICA8Y2lyY2xlIGN4PSIxNSIgY3k9IjE5IiByPSIyIi8+JiN4YTsgICAgPC9nPiYjeGE7ICAgIDxwYXRoIGZpbGw9IiNGRkI3NEQiIGQ9Ik0zMywxM2MwLTcuNi0xOC01LTE4LDBjMCwxLjEsMCw1LjksMCw3YzAsNSw0LDksOSw5czktNCw5LTlDMzMsMTguOSwzMywxNC4xLDMzLDEzeiIvPiYjeGE7ICAgIDxwYXRoIGZpbGw9IiM0MjQyNDIiIGQ9Ik0yNCw0Yy02LjEsMC0xMCw0LjktMTAsMTFjMCwwLjgsMCwyLjMsMCwyLjNsMiwxLjd2LTVsMTItNGw0LDR2NWwyLTEuN2MwLDAsMC0xLjUsMC0yLjNjMC00LTEtOC02LTlsLTEtMiBIMjR6Ii8+JiN4YTsgICAgPGcgZmlsbD0iIzc4NDcxOSI+JiN4YTsgICAgICAgIDxjaXJjbGUgY3g9IjI4IiBjeT0iMTkiIHI9IjEiLz4mI3hhOyAgICAgICAgPGNpcmNsZSBjeD0iMjAiIGN5PSIxOSIgcj0iMSIvPiYjeGE7ICAgIDwvZz4mI3hhOyAgICA8cG9seWdvbiBmaWxsPSIjZmZmIiBwb2ludHM9IjI0LDQzIDE5LDMxIDI0LDMyIDI5LDMxIi8+JiN4YTsgICAgPHBvbHlnb24gZmlsbD0iI0QzMkYyRiIgcG9pbnRzPSIyMywzNSAyMi4zLDM5LjUgMjQsNDMuNSAyNS43LDM5LjUgMjUsMzUgMjYsMzQgMjQsMzIgMjIsMzQiLz4mI3hhOyAgICA8cGF0aCBmaWxsPSIjNTQ2RTdBIiBkPSJNMjksMzFMMjksMzFsLTUsMTJsLTUtMTJjMCwwLTExLDItMTEsMTNoMzJDNDAsMzMsMjksMzEsMjksMzF6Ii8+JiN4YTs8L3N2Zz4=;align=right;" vertex="1" parent="Z1MW_R7BXnaQXeILdXze-193">
          <mxGeometry width="60" height="60" as="geometry" />
        </mxCell>
        <mxCell id="Z1MW_R7BXnaQXeILdXze-195" value="" style="shape=image;verticalLabelPosition=bottom;verticalAlign=top;imageAspect=0;aspect=fixed;image=data:image/svg+xml,PHN2ZyB4bWxucz0iaHR0cDovL3d3dy53My5vcmcvMjAwMC9zdmciIHZlcnNpb249IjEiIHZpZXdCb3g9IjAgMCA0OCA0OCIgZW5hYmxlLWJhY2tncm91bmQ9Im5ldyAwIDAgNDggNDgiPiYjeGE7ICAgIDxyZWN0IHg9IjE2IiB5PSIxNSIgZmlsbD0iI0JGMzYwQyIgd2lkdGg9IjE2IiBoZWlnaHQ9IjE4Ii8+JiN4YTsgICAgPHBhdGggZmlsbD0iIzc4OTA5QyIgZD0iTTQwLDQ0SDhjMC0xMSwxMS0xMywxMS0xM2gxMEMyOSwzMSw0MCwzMyw0MCw0NHoiLz4mI3hhOyAgICA8cGF0aCBmaWxsPSIjRkY5ODAwIiBkPSJNMjQsMzdjLTIuMiwwLTUtNi01LTZ2LTZoMTB2NkMyOSwzMSwyNi4yLDM3LDI0LDM3eiIvPiYjeGE7ICAgIDxwYXRoIGZpbGw9IiNGRkI3NEQiIGQ9Ik0zMywxNGMwLTcuNi0xOC01LTE4LDBjMCwxLjEsMCw1LjksMCw3YzAsNSw0LDksOSw5czktNCw5LTlDMzMsMTkuOSwzMywxNS4xLDMzLDE0eiIvPiYjeGE7ICAgIDxwYXRoIGZpbGw9IiNGRjU3MjIiIGQ9Ik0yNCw0QzE3LjksNCw5LDcuNCw5LDI3LjNsNyw0LjdWMTlsMTItN2w0LDV2MTVsNy02YzAtNC0wLjctMjAtMTEtMjBsLTEtMkgyNHoiLz4mI3hhOyAgICA8cGF0aCBmaWxsPSIjRkZCNzREIiBkPSJNMjQsMzhjLTQuNCwwLTUtNy01LTdzMi41LDQsNSw0czUtNCw1LTRTMjguNCwzOCwyNCwzOHoiLz4mI3hhOyAgICA8Y2lyY2xlIGZpbGw9IiM3ODQ3MTkiIGN4PSIyOCIgY3k9IjIxIiByPSIxIi8+JiN4YTsgICAgPGNpcmNsZSBmaWxsPSIjNzg0NzE5IiBjeD0iMjAiIGN5PSIyMSIgcj0iMSIvPiYjeGE7PC9zdmc+" vertex="1" parent="Z1MW_R7BXnaQXeILdXze-193">
          <mxGeometry x="43" width="60" height="60" as="geometry" />
        </mxCell>
        <mxCell id="Z1MW_R7BXnaQXeILdXze-196" value="" style="edgeStyle=orthogonalEdgeStyle;rounded=0;orthogonalLoop=1;jettySize=auto;html=1;strokeWidth=3;endArrow=none;endFill=0;" edge="1" parent="1" source="Z1MW_R7BXnaQXeILdXze-197" target="Z1MW_R7BXnaQXeILdXze-204">
          <mxGeometry relative="1" as="geometry" />
        </mxCell>
        <mxCell id="Z1MW_R7BXnaQXeILdXze-197" value="" style="ellipse;align=center;labelBackgroundColor=none;strokeColor=#007FFF;fillColor=#007FFF;" vertex="1" parent="1">
          <mxGeometry x="666" y="30" width="34" height="34" as="geometry" />
        </mxCell>
        <mxCell id="Z1MW_R7BXnaQXeILdXze-198" value="Click on Button&#xa;deploy in Jira manually" style="group;spacingBottom=-33;verticalAlign=bottom;" vertex="1" connectable="0" parent="1">
          <mxGeometry x="588.5" y="471.75" width="103" height="60" as="geometry" />
        </mxCell>
        <mxCell id="Z1MW_R7BXnaQXeILdXze-199" value="" style="shape=image;verticalLabelPosition=bottom;verticalAlign=top;imageAspect=0;aspect=fixed;image=data:image/svg+xml,PHN2ZyB4bWxucz0iaHR0cDovL3d3dy53My5vcmcvMjAwMC9zdmciIHZlcnNpb249IjEiIHZpZXdCb3g9IjAgMCA0OCA0OCIgZW5hYmxlLWJhY2tncm91bmQ9Im5ldyAwIDAgNDggNDgiPiYjeGE7ICAgIDxwb2x5Z29uIGZpbGw9IiNGRjk4MDAiIHBvaW50cz0iMjQsMzcgMTksMzEgMTksMjUgMjksMjUgMjksMzEiLz4mI3hhOyAgICA8ZyBmaWxsPSIjRkZBNzI2Ij4mI3hhOyAgICAgICAgPGNpcmNsZSBjeD0iMzMiIGN5PSIxOSIgcj0iMiIvPiYjeGE7ICAgICAgICA8Y2lyY2xlIGN4PSIxNSIgY3k9IjE5IiByPSIyIi8+JiN4YTsgICAgPC9nPiYjeGE7ICAgIDxwYXRoIGZpbGw9IiNGRkI3NEQiIGQ9Ik0zMywxM2MwLTcuNi0xOC01LTE4LDBjMCwxLjEsMCw1LjksMCw3YzAsNSw0LDksOSw5czktNCw5LTlDMzMsMTguOSwzMywxNC4xLDMzLDEzeiIvPiYjeGE7ICAgIDxwYXRoIGZpbGw9IiM0MjQyNDIiIGQ9Ik0yNCw0Yy02LjEsMC0xMCw0LjktMTAsMTFjMCwwLjgsMCwyLjMsMCwyLjNsMiwxLjd2LTVsMTItNGw0LDR2NWwyLTEuN2MwLDAsMC0xLjUsMC0yLjNjMC00LTEtOC02LTlsLTEtMiBIMjR6Ii8+JiN4YTsgICAgPGcgZmlsbD0iIzc4NDcxOSI+JiN4YTsgICAgICAgIDxjaXJjbGUgY3g9IjI4IiBjeT0iMTkiIHI9IjEiLz4mI3hhOyAgICAgICAgPGNpcmNsZSBjeD0iMjAiIGN5PSIxOSIgcj0iMSIvPiYjeGE7ICAgIDwvZz4mI3hhOyAgICA8cG9seWdvbiBmaWxsPSIjZmZmIiBwb2ludHM9IjI0LDQzIDE5LDMxIDI0LDMyIDI5LDMxIi8+JiN4YTsgICAgPHBvbHlnb24gZmlsbD0iI0QzMkYyRiIgcG9pbnRzPSIyMywzNSAyMi4zLDM5LjUgMjQsNDMuNSAyNS43LDM5LjUgMjUsMzUgMjYsMzQgMjQsMzIgMjIsMzQiLz4mI3hhOyAgICA8cGF0aCBmaWxsPSIjNTQ2RTdBIiBkPSJNMjksMzFMMjksMzFsLTUsMTJsLTUtMTJjMCwwLTExLDItMTEsMTNoMzJDNDAsMzMsMjksMzEsMjksMzF6Ii8+JiN4YTs8L3N2Zz4=;align=right;" vertex="1" parent="Z1MW_R7BXnaQXeILdXze-198">
          <mxGeometry width="60" height="60" as="geometry" />
        </mxCell>
        <mxCell id="Z1MW_R7BXnaQXeILdXze-200" value="" style="shape=image;verticalLabelPosition=bottom;verticalAlign=top;imageAspect=0;aspect=fixed;image=data:image/svg+xml,PHN2ZyB4bWxucz0iaHR0cDovL3d3dy53My5vcmcvMjAwMC9zdmciIHZlcnNpb249IjEiIHZpZXdCb3g9IjAgMCA0OCA0OCIgZW5hYmxlLWJhY2tncm91bmQ9Im5ldyAwIDAgNDggNDgiPiYjeGE7ICAgIDxyZWN0IHg9IjE2IiB5PSIxNSIgZmlsbD0iI0JGMzYwQyIgd2lkdGg9IjE2IiBoZWlnaHQ9IjE4Ii8+JiN4YTsgICAgPHBhdGggZmlsbD0iIzc4OTA5QyIgZD0iTTQwLDQ0SDhjMC0xMSwxMS0xMywxMS0xM2gxMEMyOSwzMSw0MCwzMyw0MCw0NHoiLz4mI3hhOyAgICA8cGF0aCBmaWxsPSIjRkY5ODAwIiBkPSJNMjQsMzdjLTIuMiwwLTUtNi01LTZ2LTZoMTB2NkMyOSwzMSwyNi4yLDM3LDI0LDM3eiIvPiYjeGE7ICAgIDxwYXRoIGZpbGw9IiNGRkI3NEQiIGQ9Ik0zMywxNGMwLTcuNi0xOC01LTE4LDBjMCwxLjEsMCw1LjksMCw3YzAsNSw0LDksOSw5czktNCw5LTlDMzMsMTkuOSwzMywxNS4xLDMzLDE0eiIvPiYjeGE7ICAgIDxwYXRoIGZpbGw9IiNGRjU3MjIiIGQ9Ik0yNCw0QzE3LjksNCw5LDcuNCw5LDI3LjNsNyw0LjdWMTlsMTItN2w0LDV2MTVsNy02YzAtNC0wLjctMjAtMTEtMjBsLTEtMkgyNHoiLz4mI3hhOyAgICA8cGF0aCBmaWxsPSIjRkZCNzREIiBkPSJNMjQsMzhjLTQuNCwwLTUtNy01LTdzMi41LDQsNSw0czUtNCw1LTRTMjguNCwzOCwyNCwzOHoiLz4mI3hhOyAgICA8Y2lyY2xlIGZpbGw9IiM3ODQ3MTkiIGN4PSIyOCIgY3k9IjIxIiByPSIxIi8+JiN4YTsgICAgPGNpcmNsZSBmaWxsPSIjNzg0NzE5IiBjeD0iMjAiIGN5PSIyMSIgcj0iMSIvPiYjeGE7PC9zdmc+" vertex="1" parent="Z1MW_R7BXnaQXeILdXze-198">
          <mxGeometry x="43" width="60" height="60" as="geometry" />
        </mxCell>
        <mxCell id="Z1MW_R7BXnaQXeILdXze-201" value="" style="image;image=img/lib/atlassian/Bitbucket_Logo.svg;" vertex="1" parent="1">
          <mxGeometry x="598.5" y="646.62" width="90" height="72.25" as="geometry" />
        </mxCell>
        <mxCell id="Z1MW_R7BXnaQXeILdXze-202" style="edgeStyle=orthogonalEdgeStyle;rounded=0;orthogonalLoop=1;jettySize=auto;html=1;exitX=0.5;exitY=0;exitDx=0;exitDy=0;startArrow=classic;startFill=1;endArrow=classic;endFill=1;strokeWidth=3;" edge="1" parent="1">
          <mxGeometry relative="1" as="geometry">
            <mxPoint x="644.5" y="575.5" as="targetPoint" />
            <mxPoint x="644.5" y="635.5" as="sourcePoint" />
            <Array as="points">
              <mxPoint x="645" y="595.5" />
              <mxPoint x="645" y="595.5" />
            </Array>
          </mxGeometry>
        </mxCell>
        <mxCell id="Z1MW_R7BXnaQXeILdXze-203" value="" style="shape=message;html=1;whiteSpace=wrap;html=1;outlineConnect=0;" vertex="1" parent="1">
          <mxGeometry x="488.5799999999999" y="612.75" width="30" height="20" as="geometry" />
        </mxCell>
        <mxCell id="Z1MW_R7BXnaQXeILdXze-204" value="" style="ellipse;align=center;labelBackgroundColor=none;strokeColor=#007FFF;fillColor=#007FFF;" vertex="1" parent="1">
          <mxGeometry x="827.5" y="30" width="34" height="34" as="geometry" />
        </mxCell>
        <mxCell id="Z1MW_R7BXnaQXeILdXze-205" value="Pushed Prod Container &#xa;AWS Registry" style="image;image=img/lib/atlassian/Bitbucket_Logo.svg;" vertex="1" parent="1">
          <mxGeometry x="762" y="477.75" width="90" height="72.25" as="geometry" />
        </mxCell>
        <mxCell id="Z1MW_R7BXnaQXeILdXze-206" value="AWS ECR" style="outlineConnect=0;dashed=0;verticalLabelPosition=bottom;verticalAlign=top;align=center;html=1;shape=mxgraph.aws3.ecr_registry;fillColor=#F58534;gradientColor=none;" vertex="1" parent="1">
          <mxGeometry x="771.3699999999999" y="656.75" width="71.25" height="75" as="geometry" />
        </mxCell>
        <mxCell id="Z1MW_R7BXnaQXeILdXze-207" style="edgeStyle=orthogonalEdgeStyle;rounded=0;orthogonalLoop=1;jettySize=auto;html=1;exitX=0.5;exitY=0;exitDx=0;exitDy=0;startArrow=classic;startFill=1;endArrow=none;endFill=0;strokeWidth=3;" edge="1" parent="1">
          <mxGeometry relative="1" as="geometry">
            <mxPoint x="806.4400000000005" y="587.75" as="targetPoint" />
            <mxPoint x="806.4400000000005" y="647.75" as="sourcePoint" />
            <Array as="points">
              <mxPoint x="806.94" y="607.75" />
              <mxPoint x="806.94" y="607.75" />
            </Array>
          </mxGeometry>
        </mxCell>
        <mxCell id="Z1MW_R7BXnaQXeILdXze-208" value="Prod Container" style="shape=image;html=1;verticalAlign=top;verticalLabelPosition=bottom;labelBackgroundColor=#ffffff;imageAspect=0;aspect=fixed;image=https://cdn3.iconfinder.com/data/icons/social-media-2169/24/social_media_social_media_logo_docker-128.png" vertex="1" parent="1">
          <mxGeometry x="628.5" y="831.75" width="70" height="70" as="geometry" />
        </mxCell>
        <mxCell id="Z1MW_R7BXnaQXeILdXze-209" value="Prod Container" style="shape=image;html=1;verticalAlign=top;verticalLabelPosition=bottom;labelBackgroundColor=#ffffff;imageAspect=0;aspect=fixed;image=https://cdn3.iconfinder.com/data/icons/social-media-2169/24/social_media_social_media_logo_docker-128.png" vertex="1" parent="1">
          <mxGeometry x="722" y="835.75" width="70" height="70" as="geometry" />
        </mxCell>
        <mxCell id="Z1MW_R7BXnaQXeILdXze-210" value="Prod Container" style="shape=image;html=1;verticalAlign=top;verticalLabelPosition=bottom;labelBackgroundColor=#ffffff;imageAspect=0;aspect=fixed;image=https://cdn3.iconfinder.com/data/icons/social-media-2169/24/social_media_social_media_logo_docker-128.png" vertex="1" parent="1">
          <mxGeometry x="820" y="835.75" width="70" height="70" as="geometry" />
        </mxCell>
        <mxCell id="Z1MW_R7BXnaQXeILdXze-211" value="Prod Container" style="shape=image;html=1;verticalAlign=top;verticalLabelPosition=bottom;labelBackgroundColor=#ffffff;imageAspect=0;aspect=fixed;image=https://cdn3.iconfinder.com/data/icons/social-media-2169/24/social_media_social_media_logo_docker-128.png" vertex="1" parent="1">
          <mxGeometry x="920" y="831.75" width="70" height="70" as="geometry" />
        </mxCell>
        <mxCell id="Z1MW_R7BXnaQXeILdXze-212" style="rounded=0;orthogonalLoop=1;jettySize=auto;html=1;startArrow=none;startFill=0;endArrow=classic;endFill=1;strokeWidth=3;" edge="1" parent="1">
          <mxGeometry relative="1" as="geometry">
            <mxPoint x="710" y="821.75" as="targetPoint" />
            <mxPoint x="800" y="761.75" as="sourcePoint" />
          </mxGeometry>
        </mxCell>
        <mxCell id="Z1MW_R7BXnaQXeILdXze-213" style="rounded=0;orthogonalLoop=1;jettySize=auto;html=1;startArrow=none;startFill=0;endArrow=classic;endFill=1;strokeWidth=3;" edge="1" parent="1">
          <mxGeometry relative="1" as="geometry">
            <mxPoint x="770" y="821.75" as="targetPoint" />
            <mxPoint x="800" y="761.75" as="sourcePoint" />
          </mxGeometry>
        </mxCell>
        <mxCell id="Z1MW_R7BXnaQXeILdXze-214" style="rounded=0;orthogonalLoop=1;jettySize=auto;html=1;startArrow=none;startFill=0;endArrow=classic;endFill=1;strokeWidth=3;" edge="1" parent="1">
          <mxGeometry relative="1" as="geometry">
            <mxPoint x="840" y="821.75" as="targetPoint" />
            <mxPoint x="800" y="761.75" as="sourcePoint" />
          </mxGeometry>
        </mxCell>
        <mxCell id="Z1MW_R7BXnaQXeILdXze-215" style="rounded=0;orthogonalLoop=1;jettySize=auto;html=1;startArrow=none;startFill=0;endArrow=classic;endFill=1;strokeWidth=3;" edge="1" parent="1">
          <mxGeometry relative="1" as="geometry">
            <mxPoint x="910" y="821.75" as="targetPoint" />
            <mxPoint x="800" y="761.75" as="sourcePoint" />
          </mxGeometry>
        </mxCell>
        <mxCell id="Z1MW_R7BXnaQXeILdXze-216" style="edgeStyle=isometricEdgeStyle;rounded=0;orthogonalLoop=1;jettySize=auto;html=1;exitX=1;exitY=0.78;exitDx=0;exitDy=0;exitPerimeter=0;endArrow=classic;endFill=1;strokeWidth=3;elbow=vertical;entryX=1;entryY=0.75;entryDx=0;entryDy=0;" edge="1" parent="1" source="Z1MW_R7BXnaQXeILdXze-217" target="Z1MW_R7BXnaQXeILdXze-223">
          <mxGeometry relative="1" as="geometry">
            <mxPoint x="180" y="1181.75" as="targetPoint" />
            <Array as="points">
              <mxPoint x="660" y="1221.75" />
            </Array>
          </mxGeometry>
        </mxCell>
        <mxCell id="Z1MW_R7BXnaQXeILdXze-217" value="Datenbank&lt;br&gt;RDS" style="outlineConnect=0;dashed=0;verticalLabelPosition=bottom;verticalAlign=top;align=center;html=1;shape=mxgraph.aws3.rds;fillColor=#2E73B8;gradientColor=none;" vertex="1" parent="1">
          <mxGeometry x="747" y="1021.75" width="72" height="81" as="geometry" />
        </mxCell>
        <mxCell id="Z1MW_R7BXnaQXeILdXze-218" value="Redis" style="outlineConnect=0;dashed=0;verticalLabelPosition=bottom;verticalAlign=top;align=center;html=1;shape=mxgraph.aws3.redis;fillColor=#2E73B8;gradientColor=none;" vertex="1" parent="1">
          <mxGeometry x="852" y="1018.75" width="77.14" height="81" as="geometry" />
        </mxCell>
        <mxCell id="Z1MW_R7BXnaQXeILdXze-219" value="Logs in S3" style="points=[[0,0,0],[0.25,0,0],[0.5,0,0],[0.75,0,0],[1,0,0],[0,1,0],[0.25,1,0],[0.5,1,0],[0.75,1,0],[1,1,0],[0,0.25,0],[0,0.5,0],[0,0.75,0],[1,0.25,0],[1,0.5,0],[1,0.75,0]];outlineConnect=0;fontColor=#232F3E;gradientColor=#60A337;gradientDirection=north;fillColor=#277116;strokeColor=#ffffff;dashed=0;verticalLabelPosition=bottom;verticalAlign=top;align=center;html=1;fontSize=12;fontStyle=0;aspect=fixed;shape=mxgraph.aws4.resourceIcon;resIcon=mxgraph.aws4.s3;" vertex="1" parent="1">
          <mxGeometry x="644" y="1021.75" width="78" height="78" as="geometry" />
        </mxCell>
        <mxCell id="Z1MW_R7BXnaQXeILdXze-220" style="edgeStyle=none;rounded=0;orthogonalLoop=1;jettySize=auto;html=1;exitX=1;exitY=0.5;exitDx=0;exitDy=0;exitPerimeter=0;entryX=1;entryY=0.5;entryDx=0;entryDy=0;strokeWidth=3;" edge="1" parent="1" source="Z1MW_R7BXnaQXeILdXze-221" target="Z1MW_R7BXnaQXeILdXze-222">
          <mxGeometry relative="1" as="geometry" />
        </mxCell>
        <mxCell id="Z1MW_R7BXnaQXeILdXze-221" value="SES Relay Server" style="outlineConnect=0;dashed=0;verticalLabelPosition=bottom;verticalAlign=top;align=center;html=1;shape=mxgraph.aws3.ses;fillColor=#D9A741;gradientColor=none;" vertex="1" parent="1">
          <mxGeometry x="445.75" y="1009.75" width="70.1" height="82" as="geometry" />
        </mxCell>
        <mxCell id="Z1MW_R7BXnaQXeILdXze-222" value="" style="shape=image;html=1;verticalAlign=top;verticalLabelPosition=bottom;labelBackgroundColor=#ffffff;imageAspect=0;aspect=fixed;image=https://cdn4.iconfinder.com/data/icons/glyphs/24/icons_user2-128.png" vertex="1" parent="1">
          <mxGeometry x="320" y="1020.75" width="60" height="60" as="geometry" />
        </mxCell>
        <mxCell id="Z1MW_R7BXnaQXeILdXze-223" value="Mysql Container&lt;br&gt;mit präperierten Daten&lt;br&gt;Daten&lt;br&gt;&lt;br&gt;Der wir gebaut, die änderung&lt;br&gt;docker push" style="shape=image;html=1;verticalAlign=top;verticalLabelPosition=bottom;labelBackgroundColor=#ffffff;imageAspect=0;aspect=fixed;image=https://cdn3.iconfinder.com/data/icons/social-media-2169/24/social_media_social_media_logo_docker-128.png" vertex="1" parent="1">
          <mxGeometry x="108" y="1071.75" width="70" height="70" as="geometry" />
        </mxCell>
        <mxCell id="Z1MW_R7BXnaQXeILdXze-224" style="rounded=0;orthogonalLoop=1;jettySize=auto;html=1;exitX=0;exitY=0;exitDx=0;exitDy=0;endArrow=classic;endFill=1;strokeWidth=3;" edge="1" parent="1" source="Z1MW_R7BXnaQXeILdXze-223">
          <mxGeometry relative="1" as="geometry">
            <mxPoint x="117.99999999999955" y="1081.75" as="sourcePoint" />
            <mxPoint x="50" y="761.75" as="targetPoint" />
          </mxGeometry>
        </mxCell>
        <mxCell id="Z1MW_R7BXnaQXeILdXze-225" value="Fürs nächste Testing" style="edgeLabel;html=1;align=center;verticalAlign=middle;resizable=0;points=[];" vertex="1" connectable="0" parent="Z1MW_R7BXnaQXeILdXze-224">
          <mxGeometry x="0.2731" y="-1" relative="1" as="geometry">
            <mxPoint x="1" as="offset" />
          </mxGeometry>
        </mxCell>
        <mxCell id="Z1MW_R7BXnaQXeILdXze-227" value="" style="shape=image;html=1;verticalAlign=top;verticalLabelPosition=bottom;labelBackgroundColor=#ffffff;imageAspect=0;aspect=fixed;image=https://cdn3.iconfinder.com/data/icons/tools-hardwares/36/tool-box-128.png" vertex="1" parent="1">
          <mxGeometry x="360" y="497.88" width="32" height="32" as="geometry" />
        </mxCell>
        <mxCell id="Z1MW_R7BXnaQXeILdXze-228" value="" style="shape=image;html=1;verticalAlign=top;verticalLabelPosition=bottom;labelBackgroundColor=#ffffff;imageAspect=0;aspect=fixed;image=https://cdn3.iconfinder.com/data/icons/tools-hardwares/36/tool-box-128.png" vertex="1" parent="1">
          <mxGeometry x="21.5" y="497.88" width="32" height="32" as="geometry" />
        </mxCell>
        <mxCell id="Z1MW_R7BXnaQXeILdXze-233" value="" style="endArrow=none;html=1;entryX=0.5;entryY=0;entryDx=0;entryDy=0;endFill=0;startArrow=classicThin;startFill=1;" edge="1" parent="1" target="Z1MW_R7BXnaQXeILdXze-4">
          <mxGeometry width="50" height="50" relative="1" as="geometry">
            <mxPoint x="-760" y="190" as="sourcePoint" />
            <mxPoint x="-700" y="250" as="targetPoint" />
          </mxGeometry>
        </mxCell>
        <mxCell id="Z1MW_R7BXnaQXeILdXze-234" value="docker pull nginx:latest" style="edgeLabel;html=1;align=center;verticalAlign=middle;resizable=0;points=[];" vertex="1" connectable="0" parent="Z1MW_R7BXnaQXeILdXze-233">
          <mxGeometry x="0.2966" relative="1" as="geometry">
            <mxPoint as="offset" />
          </mxGeometry>
        </mxCell>
        <mxCell id="Z1MW_R7BXnaQXeILdXze-235" value="&lt;div align=&quot;left&quot;&gt;&lt;br&gt;&lt;/div&gt;&lt;div align=&quot;left&quot;&gt;This changes could be the following:&lt;br&gt;&lt;ul&gt;&lt;li&gt;Security Updates&lt;/li&gt;&lt;li&gt;nginx.conf or vhost config needs update&lt;/li&gt;&lt;li&gt;special changes in the container&lt;br&gt;&lt;/li&gt;&lt;/ul&gt;&lt;/div&gt;&lt;div&gt;&lt;br&gt;&lt;/div&gt;" style="rounded=0;whiteSpace=wrap;html=1;" vertex="1" parent="1">
          <mxGeometry x="-1075" y="60" width="232.5" height="110" as="geometry" />
        </mxCell>
        <mxCell id="Z1MW_R7BXnaQXeILdXze-238" value="Operations" style="group;spacingBottom=0;verticalAlign=top;labelPosition=center;verticalLabelPosition=bottom;align=center;spacing=0;" vertex="1" connectable="0" parent="1">
          <mxGeometry x="-610" y="110" width="103" height="60" as="geometry" />
        </mxCell>
        <mxCell id="Z1MW_R7BXnaQXeILdXze-239" value="" style="shape=image;verticalLabelPosition=bottom;verticalAlign=top;imageAspect=0;aspect=fixed;image=data:image/svg+xml,PHN2ZyB4bWxucz0iaHR0cDovL3d3dy53My5vcmcvMjAwMC9zdmciIHZlcnNpb249IjEiIHZpZXdCb3g9IjAgMCA0OCA0OCIgZW5hYmxlLWJhY2tncm91bmQ9Im5ldyAwIDAgNDggNDgiPiYjeGE7ICAgIDxwb2x5Z29uIGZpbGw9IiNGRjk4MDAiIHBvaW50cz0iMjQsMzcgMTksMzEgMTksMjUgMjksMjUgMjksMzEiLz4mI3hhOyAgICA8ZyBmaWxsPSIjRkZBNzI2Ij4mI3hhOyAgICAgICAgPGNpcmNsZSBjeD0iMzMiIGN5PSIxOSIgcj0iMiIvPiYjeGE7ICAgICAgICA8Y2lyY2xlIGN4PSIxNSIgY3k9IjE5IiByPSIyIi8+JiN4YTsgICAgPC9nPiYjeGE7ICAgIDxwYXRoIGZpbGw9IiNGRkI3NEQiIGQ9Ik0zMywxM2MwLTcuNi0xOC01LTE4LDBjMCwxLjEsMCw1LjksMCw3YzAsNSw0LDksOSw5czktNCw5LTlDMzMsMTguOSwzMywxNC4xLDMzLDEzeiIvPiYjeGE7ICAgIDxwYXRoIGZpbGw9IiM0MjQyNDIiIGQ9Ik0yNCw0Yy02LjEsMC0xMCw0LjktMTAsMTFjMCwwLjgsMCwyLjMsMCwyLjNsMiwxLjd2LTVsMTItNGw0LDR2NWwyLTEuN2MwLDAsMC0xLjUsMC0yLjNjMC00LTEtOC02LTlsLTEtMiBIMjR6Ii8+JiN4YTsgICAgPGcgZmlsbD0iIzc4NDcxOSI+JiN4YTsgICAgICAgIDxjaXJjbGUgY3g9IjI4IiBjeT0iMTkiIHI9IjEiLz4mI3hhOyAgICAgICAgPGNpcmNsZSBjeD0iMjAiIGN5PSIxOSIgcj0iMSIvPiYjeGE7ICAgIDwvZz4mI3hhOyAgICA8cG9seWdvbiBmaWxsPSIjZmZmIiBwb2ludHM9IjI0LDQzIDE5LDMxIDI0LDMyIDI5LDMxIi8+JiN4YTsgICAgPHBvbHlnb24gZmlsbD0iI0QzMkYyRiIgcG9pbnRzPSIyMywzNSAyMi4zLDM5LjUgMjQsNDMuNSAyNS43LDM5LjUgMjUsMzUgMjYsMzQgMjQsMzIgMjIsMzQiLz4mI3hhOyAgICA8cGF0aCBmaWxsPSIjNTQ2RTdBIiBkPSJNMjksMzFMMjksMzFsLTUsMTJsLTUtMTJjMCwwLTExLDItMTEsMTNoMzJDNDAsMzMsMjksMzEsMjksMzF6Ii8+JiN4YTs8L3N2Zz4=;align=right;" vertex="1" parent="Z1MW_R7BXnaQXeILdXze-238">
          <mxGeometry width="60" height="60" as="geometry" />
        </mxCell>
        <mxCell id="Z1MW_R7BXnaQXeILdXze-240" value="" style="shape=image;verticalLabelPosition=bottom;verticalAlign=top;imageAspect=0;aspect=fixed;image=data:image/svg+xml,PHN2ZyB4bWxucz0iaHR0cDovL3d3dy53My5vcmcvMjAwMC9zdmciIHZlcnNpb249IjEiIHZpZXdCb3g9IjAgMCA0OCA0OCIgZW5hYmxlLWJhY2tncm91bmQ9Im5ldyAwIDAgNDggNDgiPiYjeGE7ICAgIDxyZWN0IHg9IjE2IiB5PSIxNSIgZmlsbD0iI0JGMzYwQyIgd2lkdGg9IjE2IiBoZWlnaHQ9IjE4Ii8+JiN4YTsgICAgPHBhdGggZmlsbD0iIzc4OTA5QyIgZD0iTTQwLDQ0SDhjMC0xMSwxMS0xMywxMS0xM2gxMEMyOSwzMSw0MCwzMyw0MCw0NHoiLz4mI3hhOyAgICA8cGF0aCBmaWxsPSIjRkY5ODAwIiBkPSJNMjQsMzdjLTIuMiwwLTUtNi01LTZ2LTZoMTB2NkMyOSwzMSwyNi4yLDM3LDI0LDM3eiIvPiYjeGE7ICAgIDxwYXRoIGZpbGw9IiNGRkI3NEQiIGQ9Ik0zMywxNGMwLTcuNi0xOC01LTE4LDBjMCwxLjEsMCw1LjksMCw3YzAsNSw0LDksOSw5czktNCw5LTlDMzMsMTkuOSwzMywxNS4xLDMzLDE0eiIvPiYjeGE7ICAgIDxwYXRoIGZpbGw9IiNGRjU3MjIiIGQ9Ik0yNCw0QzE3LjksNCw5LDcuNCw5LDI3LjNsNyw0LjdWMTlsMTItN2w0LDV2MTVsNy02YzAtNC0wLjctMjAtMTEtMjBsLTEtMkgyNHoiLz4mI3hhOyAgICA8cGF0aCBmaWxsPSIjRkZCNzREIiBkPSJNMjQsMzhjLTQuNCwwLTUtNy01LTdzMi41LDQsNSw0czUtNCw1LTRTMjguNCwzOCwyNCwzOHoiLz4mI3hhOyAgICA8Y2lyY2xlIGZpbGw9IiM3ODQ3MTkiIGN4PSIyOCIgY3k9IjIxIiByPSIxIi8+JiN4YTsgICAgPGNpcmNsZSBmaWxsPSIjNzg0NzE5IiBjeD0iMjAiIGN5PSIyMSIgcj0iMSIvPiYjeGE7PC9zdmc+" vertex="1" parent="Z1MW_R7BXnaQXeILdXze-238">
          <mxGeometry x="43" width="60" height="60" as="geometry" />
        </mxCell>
      </root>
    </mxGraphModel>
  </diagram>
</mxfile>
